<svg id="Layer_1" data-name="Layer 1" xmlns="http://www.w3.org/2000/svg" viewBox="0 0 795.05 803"><defs><style>.cls-1{fill:none;stroke:#000;stroke-linecap:round;stroke-linejoin:round;stroke-width:3px;}</style></defs><title>rai_logo</title><path d="M708.75,507.87V723.51c0,29.41,0,54.36-.34,76.49h86c1.11-30.22,1.11-65,1.11-108.79V507.87Zm-6.1-243.69c4.79,35.26,5.82,71.5,6,122.68h86.84V372.19c0-61,0-104.48-3-142.52Zm82.07-92.78c-1.47-7.43-3.13-14.9-5-22.53-15.84-53.17-55.44-106.34-95-127.61C637.12,0,597.52,0,518.31,0H280.7C201.49,0,161.89,0,114.36,21.27c-39.6,21.27-79.21,74.44-95,127.61-15.84,63.8-15.84,117-15.84,223.32v319c0,43.79,0,78.57,1.11,108.79H91.22c-.34-22.12-.34-47.08-.34-76.49V432.18c0-97.11,0-145.67,12.36-203.94,12.36-48.56,43.25-97.11,74.15-116.53,37.07-19.42,68-19.42,129.75-19.42H492.49c61.79,0,92.68,0,129.75,19.42,26.53,16.68,53.05,54.83,67.84,96Z" transform="translate(-1.98 1.5)"/><path class="cls-1" d="M708.75,507.87V723.51c0,29.41,0,54.36-.34,76.49h86c1.11-30.22,1.11-65,1.11-108.79V507.87Zm-6.1-243.69c4.79,35.26,5.82,71.5,6,122.68h86.84V372.19c0-61,0-104.48-3-142.52Zm82.07-92.78c-1.47-7.43-3.13-14.9-5-22.53-15.84-53.17-55.44-106.34-95-127.61C637.12,0,597.52,0,518.31,0H280.7C201.49,0,161.89,0,114.36,21.27c-39.6,21.27-79.21,74.44-95,127.61-15.84,63.8-15.84,117-15.84,223.32v319c0,43.79,0,78.57,1.11,108.79H91.22c-.34-22.12-.34-47.08-.34-76.49V432.18c0-97.11,0-145.67,12.36-203.94,12.36-48.56,43.25-97.11,74.15-116.53,37.07-19.42,68-19.42,129.75-19.42H492.49c61.79,0,92.68,0,129.75,19.42,26.53,16.68,53.05,54.83,67.84,96Z" transform="translate(-1.98 1.5)"/><path d="M396.78,800H677V454.43q0-.35,0-.69v-8.21h-.09c-1.7-85.65-29-170.67-81.9-236C485.67,74.4,308.45,74.4,199.14,209.49s-109.31,354.11,0,489.19c53.1,65.62,122.23,99.37,191.81,101.23V800ZM277.68,623.53c-69.81-89-69.81-233.36,0-322.38s183-89,252.81,0,69.81,233.36,0,322.38-183,89-252.81,0" transform="translate(-1.98 1.5)"/></svg>